<!-- <svg xmlns="http://www.w3.org/2000/svg" width="226" height="90" fill="none"><path fill="url(#a)" d="M.001 18.9H0v52.5h.001C.162 81.686 16.89 90 37.5 90c20.61 0 37.338-8.314 37.499-18.6H75V18.9h-.001C74.838 29.186 58.11 37.5 37.5 37.5 16.89 37.5.162 29.186.001 18.9Z"/><path fill="#8D6AF1" fill-rule="evenodd" d="M37.5 37.5c20.71 0 37.5-8.395 37.5-18.75S58.21 0 37.5 0 0 8.395 0 18.75 16.79 37.5 37.5 37.5Zm.15-9.15c10.355 0 18.75-4.197 18.75-9.375S48.005 9.6 37.65 9.6 18.9 13.797 18.9 18.975s8.395 9.375 18.75 9.375Z" clip-rule="evenodd"/><path fill="#fff" d="M25.5 63.559v13.618a1 1 0 0 1-1.496.868l-10.6-6.057a1 1 0 0 1-.504-.868V41.677a1 1 0 0 1 1.52-.854l22.417 13.615a1 1 0 0 0 1.03.006L60.89 40.795a1 1 0 0 1 1.51.86v30.04a1 1 0 0 1-.536.886l-10.6 5.552a1 1 0 0 1-1.464-.886V63.515a1 1 0 0 0-1.493-.87l-10.452 5.919a1 1 0 0 1-1.004-.01l-9.84-5.855a1 1 0 0 0-1.511.86Z"/><path fill="#8D6AF1" d="M96.004 38.196c-1.83 0-3.51-.43-5.04-1.288a9.647 9.647 0 0 1-3.64-3.556c-.896-1.53-1.344-3.257-1.344-5.18 0-1.904.448-3.612 1.344-5.124a9.585 9.585 0 0 1 3.64-3.584c1.53-.859 3.21-1.288 5.04-1.288 1.848 0 3.528.43 5.04 1.288a9.38 9.38 0 0 1 3.612 3.584c.896 1.512 1.344 3.22 1.344 5.124 0 1.923-.448 3.65-1.344 5.18a9.438 9.438 0 0 1-3.612 3.556c-1.53.859-3.21 1.288-5.04 1.288Zm0-3.5c1.176 0 2.212-.261 3.108-.784.896-.541 1.596-1.307 2.1-2.296.504-.99.756-2.137.756-3.444s-.252-2.445-.756-3.416c-.504-.99-1.204-1.745-2.1-2.268-.896-.523-1.932-.784-3.108-.784-1.176 0-2.221.261-3.136.784-.896.523-1.596 1.279-2.1 2.268-.504.97-.756 2.11-.756 3.416 0 1.307.252 2.455.756 3.444.504.99 1.204 1.755 2.1 2.296.915.523 1.96.784 3.136.784Zm16.832-9.968c.504-.71 1.195-1.297 2.072-1.764.896-.485 1.914-.728 3.052-.728 1.326 0 2.52.327 3.584.98 1.083.653 1.932 1.587 2.548 2.8.635 1.195.952 2.585.952 4.172 0 1.587-.317 2.996-.952 4.228-.616 1.213-1.465 2.156-2.548 2.828-1.064.672-2.258 1.008-3.584 1.008-1.138 0-2.146-.233-3.024-.7-.858-.467-1.558-1.055-2.1-1.764v9.604h-3.92V22.488h3.92v2.24Zm8.204 5.46c0-.933-.196-1.736-.588-2.408-.373-.69-.877-1.213-1.512-1.568a3.97 3.97 0 0 0-2.016-.532c-.709 0-1.381.187-2.016.56-.616.355-1.12.877-1.512 1.568-.373.69-.56 1.503-.56 2.436s.187 1.745.56 2.436c.392.69.896 1.223 1.512 1.596a4.072 4.072 0 0 0 2.016.532c.728 0 1.4-.187 2.016-.56a4.02 4.02 0 0 0 1.512-1.596c.392-.69.588-1.512.588-2.464Zm21.273-.28c0 .56-.037 1.064-.112 1.512h-11.34c.093 1.12.485 1.997 1.176 2.632s1.54.952 2.548.952c1.456 0 2.492-.625 3.108-1.876h4.228c-.448 1.493-1.307 2.725-2.576 3.696-1.269.952-2.828 1.428-4.676 1.428-1.493 0-2.837-.327-4.032-.98a7.213 7.213 0 0 1-2.772-2.828c-.653-1.213-.98-2.613-.98-4.2 0-1.605.327-3.015.98-4.228a6.836 6.836 0 0 1 2.744-2.8c1.176-.653 2.529-.98 4.06-.98 1.475 0 2.791.317 3.948.952a6.57 6.57 0 0 1 2.716 2.716c.653 1.157.98 2.492.98 4.004Zm-4.06-1.12c-.019-1.008-.383-1.81-1.092-2.408-.709-.616-1.577-.924-2.604-.924-.971 0-1.792.299-2.464.896-.653.579-1.055 1.39-1.204 2.436h7.364Zm15.517-6.524c1.848 0 3.342.588 4.48 1.764 1.139 1.157 1.708 2.781 1.708 4.872V38h-3.92v-8.568c0-1.232-.308-2.175-.924-2.828-.616-.672-1.456-1.008-2.52-1.008-1.082 0-1.941.336-2.576 1.008-.616.653-.924 1.596-.924 2.828V38h-3.92V22.488h3.92v1.932a5.322 5.322 0 0 1 1.988-1.568 6.164 6.164 0 0 1 2.688-.588Z"/><path fill="#7147E8" d="M108.24 54.456V74h-3.92V61.288L99.084 74h-2.968l-5.264-12.712V74h-3.92V54.456h4.452L97.6 68.988l6.216-14.532h4.424Zm18.296 11.452c0 .56-.038 1.064-.112 1.512h-11.34c.093 1.12.485 1.997 1.176 2.632.69.635 1.54.952 2.548.952 1.456 0 2.492-.625 3.108-1.876h4.228c-.448 1.493-1.307 2.725-2.576 3.696-1.27.952-2.828 1.428-4.676 1.428-1.494 0-2.838-.327-4.032-.98a7.213 7.213 0 0 1-2.772-2.828c-.654-1.213-.98-2.613-.98-4.2 0-1.605.326-3.015.98-4.228a6.836 6.836 0 0 1 2.744-2.8c1.176-.653 2.529-.98 4.06-.98 1.474 0 2.79.317 3.948.952a6.57 6.57 0 0 1 2.716 2.716c.653 1.157.98 2.492.98 4.004Zm-4.06-1.12c-.019-1.008-.383-1.81-1.092-2.408-.71-.616-1.578-.924-2.604-.924-.971 0-1.792.299-2.464.896-.654.579-1.055 1.39-1.204 2.436h7.364Zm11.485-3.08v7.504c0 .523.121.905.364 1.148.261.224.691.336 1.288.336h1.82V74h-2.464c-3.304 0-4.956-1.605-4.956-4.816v-7.476h-1.848v-3.22h1.848v-3.836h3.948v3.836h3.472v3.22h-3.472Zm5.283 4.48c0-1.568.308-2.959.924-4.172.635-1.213 1.484-2.147 2.548-2.8 1.083-.653 2.287-.98 3.612-.98 1.158 0 2.166.233 3.024.7.878.467 1.578 1.055 2.1 1.764v-2.212h3.948V74h-3.948v-2.268c-.504.728-1.204 1.335-2.1 1.82-.877.467-1.894.7-3.052.7a6.665 6.665 0 0 1-3.584-1.008c-1.064-.672-1.913-1.615-2.548-2.828-.616-1.232-.924-2.641-.924-4.228Zm12.208.056c0-.952-.186-1.764-.56-2.436-.373-.69-.877-1.213-1.512-1.568a3.962 3.962 0 0 0-2.044-.56c-.728 0-1.4.177-2.016.532-.616.355-1.12.877-1.512 1.568-.373.672-.56 1.475-.56 2.408 0 .933.187 1.755.56 2.464.392.69.896 1.223 1.512 1.596.635.373 1.307.56 2.016.56.728 0 1.41-.177 2.044-.532a4.068 4.068 0 0 0 1.512-1.568c.374-.69.56-1.512.56-2.464Zm6.769-.056c0-1.568.308-2.959.924-4.172.635-1.213 1.493-2.147 2.576-2.8s2.287-.98 3.612-.98c1.008 0 1.969.224 2.884.672.915.43 1.643 1.008 2.184 1.736V53.28h3.976V74h-3.976v-2.296c-.485.765-1.167 1.381-2.044 1.848-.877.467-1.895.7-3.052.7a6.662 6.662 0 0 1-3.584-1.008c-1.083-.672-1.941-1.615-2.576-2.828-.616-1.232-.924-2.641-.924-4.228Zm12.208.056c0-.952-.187-1.764-.56-2.436-.373-.69-.877-1.213-1.512-1.568a3.965 3.965 0 0 0-2.044-.56c-.728 0-1.4.177-2.016.532-.616.355-1.12.877-1.512 1.568-.373.672-.56 1.475-.56 2.408 0 .933.187 1.755.56 2.464.392.69.896 1.223 1.512 1.596.635.373 1.307.56 2.016.56.728 0 1.409-.177 2.044-.532a4.068 4.068 0 0 0 1.512-1.568c.373-.69.56-1.512.56-2.464Zm6.768-.056c0-1.568.308-2.959.924-4.172.635-1.213 1.484-2.147 2.548-2.8 1.083-.653 2.287-.98 3.612-.98 1.158 0 2.166.233 3.024.7.878.467 1.578 1.055 2.1 1.764v-2.212h3.948V74h-3.948v-2.268c-.504.728-1.204 1.335-2.1 1.82-.877.467-1.894.7-3.052.7a6.665 6.665 0 0 1-3.584-1.008c-1.064-.672-1.913-1.615-2.548-2.828-.616-1.232-.924-2.641-.924-4.228Zm12.208.056c0-.952-.186-1.764-.56-2.436-.373-.69-.877-1.213-1.512-1.568a3.962 3.962 0 0 0-2.044-.56c-.728 0-1.4.177-2.016.532-.616.355-1.12.877-1.512 1.568-.373.672-.56 1.475-.56 2.408 0 .933.187 1.755.56 2.464.392.69.896 1.223 1.512 1.596.635.373 1.307.56 2.016.56.728 0 1.41-.177 2.044-.532a4.068 4.068 0 0 0 1.512-1.568c.374-.69.56-1.512.56-2.464Zm12.341-4.536v7.504c0 .523.121.905.364 1.148.261.224.691.336 1.288.336h1.82V74h-2.464c-3.304 0-4.956-1.605-4.956-4.816v-7.476h-1.848v-3.22h1.848v-3.836h3.948v3.836h3.472v3.22h-3.472Zm5.283 4.48c0-1.568.308-2.959.924-4.172.635-1.213 1.484-2.147 2.548-2.8 1.083-.653 2.287-.98 3.612-.98 1.158 0 2.166.233 3.024.7.878.467 1.578 1.055 2.1 1.764v-2.212h3.948V74h-3.948v-2.268c-.504.728-1.204 1.335-2.1 1.82-.877.467-1.894.7-3.052.7a6.665 6.665 0 0 1-3.584-1.008c-1.064-.672-1.913-1.615-2.548-2.828-.616-1.232-.924-2.641-.924-4.228Zm12.208.056c0-.952-.186-1.764-.56-2.436-.373-.69-.877-1.213-1.512-1.568a3.962 3.962 0 0 0-2.044-.56c-.728 0-1.4.177-2.016.532-.616.355-1.12.877-1.512 1.568-.373.672-.56 1.475-.56 2.408 0 .933.187 1.755.56 2.464.392.69.896 1.223 1.512 1.596.635.373 1.307.56 2.016.56.728 0 1.41-.177 2.044-.532a4.068 4.068 0 0 0 1.512-1.568c.374-.69.56-1.512.56-2.464Z"/><defs><linearGradient id="a" x1="37.5" x2="37.5" y1="27" y2="90" gradientUnits="userSpaceOnUse"><stop stop-color="#35198E"/><stop offset="1" stop-color="#8D6AF1"/></linearGradient></defs></svg> -->
<svg width="361" height="122" viewBox="0 0 361 122" fill="none" xmlns="http://www.w3.org/2000/svg">
<path d="M94.8898 54.595C100.616 54.595 105.886 57.5947 108.885 61.1379V35.5128H119.608V100.942H108.885V95.1255C105.886 98.8519 100.616 101.849 94.8898 101.849C81.8941 101.849 72.3545 91.216 72.3545 78.2233C72.3545 65.2305 81.8971 54.598 94.8898 54.598V54.595ZM83.0772 78.2203C83.0772 85.3097 88.8934 91.1229 95.9798 91.1229C103.066 91.1229 108.885 85.3067 108.885 78.2203C108.885 71.1339 103.069 65.3176 95.9798 65.3176C88.8904 65.3176 83.0772 71.1339 83.0772 78.2203Z" fill="#FCFCFC"/>
<path d="M149.956 54.5951C155.683 54.5951 160.952 57.5948 163.952 61.138V55.505H174.675V100.942H163.952V95.1257C160.952 98.8521 155.683 101.849 149.956 101.849C136.961 101.849 127.421 91.2162 127.421 78.2234C127.421 65.2307 136.964 54.5982 149.956 54.5982V54.5951ZM138.144 78.2205C138.144 85.3099 143.96 91.1231 151.046 91.1231C158.133 91.1231 163.952 85.3069 163.952 78.2205C163.952 71.1341 158.136 65.3178 151.046 65.3178C143.957 65.3178 138.144 71.1341 138.144 78.2205Z" fill="#FCFCFC"/>
<path d="M185.578 55.5049C187.941 55.5049 189.577 53.9615 189.577 51.5983V43.3288H200.3V55.5049H211.839V66.2276H200.3V82.4932C200.3 89.6727 201.39 91.4894 205.753 91.4894C207.753 91.4894 209.569 91.2161 211.842 90.7627V100.939C209.752 101.485 206.753 101.849 204.299 101.849C193.94 101.849 189.577 97.1224 189.577 85.6731V66.2276H181.218V55.5049H185.581H185.578Z" fill="#FCFCFC"/>
<path d="M239.737 54.5951C245.464 54.5951 250.733 57.5948 253.733 61.138V55.505H264.456V100.942H253.733V95.1257C250.733 98.8521 245.464 101.849 239.737 101.849C226.742 101.849 217.202 91.2162 217.202 78.2234C217.202 65.2307 226.745 54.5982 239.737 54.5982V54.5951ZM227.925 78.2205C227.925 85.3099 233.741 91.1231 240.827 91.1231C247.914 91.1231 253.733 85.3069 253.733 78.2205C253.733 71.1341 247.917 65.3178 240.827 65.3178C233.738 65.3178 227.925 71.1341 227.925 78.2205Z" fill="#FCFCFC"/>
<path d="M269.452 111.482C273.722 111.482 274.995 109.755 274.995 104.122V55.5051H285.718V104.305C285.718 116.028 280.901 121.844 269.998 121.844H268.635V111.485H269.452V111.482ZM280.358 34.6031C283.901 34.6031 286.718 37.4197 286.718 40.9629C286.718 44.5061 283.901 47.4158 280.358 47.4158C276.815 47.4158 273.998 44.5091 273.998 40.9629C273.998 37.4167 276.815 34.6031 280.358 34.6031Z" fill="#FCFCFC"/>
<path d="M340.788 78.2235C340.788 91.2192 330.245 101.849 317.163 101.849C304.08 101.849 293.534 91.2162 293.534 78.2235C293.534 65.2307 304.167 54.5982 317.163 54.5982C330.158 54.5982 340.788 65.1407 340.788 78.2235ZM317.163 91.1262C324.249 91.1262 330.065 85.3099 330.065 78.2235C330.065 71.1371 324.249 65.3209 317.163 65.3209C310.076 65.3209 304.26 71.1371 304.26 78.2235C304.26 85.3099 310.076 91.1262 317.163 91.1262Z" fill="#FCFCFC"/>
<path d="M353.966 34.6031C357.509 34.6031 360.326 37.5098 360.326 40.9629C360.326 44.416 357.509 47.4158 353.966 47.4158C350.423 47.4158 347.606 44.5091 347.606 40.9629C347.606 37.4167 350.423 34.6031 353.966 34.6031ZM348.603 100.939V55.502H359.326V100.939H348.603Z" fill="#FCFCFC"/>
<path d="M46.3889 61.5255V71.3204L0 24.9314V0L35.6842 35.6842C42.5364 42.5363 46.3859 51.8298 46.3859 61.5226L46.3889 61.5255Z" fill="#FCFCFC"/>
<path d="M46.3922 89.0994V92.7387C46.3922 98.3868 44.1462 103.798 40.1616 107.794L24.7637 92.3964L15.6354 58.3426L46.3922 89.0994Z" fill="#FCFCFC"/>
<path d="M31.2672 116.679C24.382 123.565 13.2209 123.565 6.33572 116.679C2.27906 112.623 0 107.122 0 101.384V85.412L31.2672 116.679Z" fill="#FCFCFC"/>
</svg>
